<svg width="16" height="15" viewBox="0 0 16 15" fill="none" xmlns="http://www.w3.org/2000/svg">
<path d="M0.977539 7.50684C0.977539 7.21354 1.08268 6.96175 1.29297 6.75146C1.50326 6.54118 1.75505 6.43604 2.04834 6.43604H6.9375V1.55518C6.9375 1.26188 7.03988 1.01009 7.24463 0.799805C7.44938 0.589518 7.70117 0.484375 8 0.484375C8.29329 0.484375 8.54508 0.589518 8.75537 0.799805C8.96566 1.01009 9.0708 1.26188 9.0708 1.55518V6.43604H13.96C14.2477 6.43604 14.4967 6.54118 14.707 6.75146C14.9173 6.96175 15.0225 7.21354 15.0225 7.50684C15.0225 7.80566 14.9173 8.06022 14.707 8.27051C14.4967 8.47526 14.2477 8.57764 13.96 8.57764H9.0708V13.4668C9.0708 13.7546 8.96566 14.0036 8.75537 14.2139C8.54508 14.4242 8.29329 14.5293 8 14.5293C7.70117 14.5293 7.44938 14.4242 7.24463 14.2139C7.03988 14.0036 6.9375 13.7546 6.9375 13.4668V8.57764H2.04834C1.75505 8.57764 1.50326 8.47526 1.29297 8.27051C1.08268 8.06022 0.977539 7.80566 0.977539 7.50684Z" fill="#1A4184" fill-opacity="0.15" style="mix-blend-mode:overlay"/>
</svg>
