<?xml version="1.0" encoding="UTF-8"?>
<!--Generator: Apple Native CoreSVG 326-->
<!DOCTYPE svg
PUBLIC "-//W3C//DTD SVG 1.1//EN"
       "http://www.w3.org/Graphics/SVG/1.1/DTD/svg11.dtd">
<svg version="1.1" xmlns="http://www.w3.org/2000/svg" xmlns:xlink="http://www.w3.org/1999/xlink" viewBox="0 0 18.3887 17.7148">
 <g>
  <rect height="17.7148" opacity="0" width="18.3887" x="0" y="0"/>
  <path d="M7.02637 17.7148C7.69043 17.7148 8.21289 17.4561 8.56934 16.9189L17.6611 3.00293C17.9199 2.6123 18.0273 2.24609 18.0273 1.90918C18.0273 0.996094 17.3389 0.332031 16.4062 0.332031C15.7617 0.332031 15.3662 0.556641 14.9707 1.17188L6.9873 13.7793L2.92969 8.75C2.57324 8.31055 2.17773 8.11523 1.63086 8.11523C0.683594 8.11523 0 8.79395 0 9.71191C0 10.1172 0.126953 10.4785 0.473633 10.8838L5.51758 16.9922C5.93262 17.4854 6.40625 17.7148 7.02637 17.7148Z" fill="white" fill-opacity="0.85"/>
 </g>
</svg>
