<svg width="17" height="16" viewBox="0 0 17 16" fill="none" xmlns="http://www.w3.org/2000/svg">
<path d="M3.46143 15.6519C2.59261 15.6519 1.93962 15.436 1.50244 15.0044C1.0708 14.5783 0.85498 13.9391 0.85498 13.0869V2.94336C0.85498 2.08561 1.0708 1.44368 1.50244 1.01758C1.93962 0.585938 2.59261 0.370117 3.46143 0.370117H13.5303C14.3991 0.370117 15.0493 0.585938 15.481 1.01758C15.9181 1.44922 16.1367 2.09115 16.1367 2.94336V13.0869C16.1367 13.9391 15.9181 14.5783 15.481 15.0044C15.0493 15.436 14.3991 15.6519 13.5303 15.6519H3.46143ZM3.47803 14.3154H13.5137C13.9232 14.3154 14.2386 14.2075 14.46 13.9917C14.6868 13.7703 14.8003 13.4438 14.8003 13.0122V3.01807C14.8003 2.58643 14.6868 2.25993 14.46 2.03857C14.2386 1.81722 13.9232 1.70654 13.5137 1.70654H3.47803C3.06299 1.70654 2.74479 1.81722 2.52344 2.03857C2.30208 2.25993 2.19141 2.58643 2.19141 3.01807V13.0122C2.19141 13.4438 2.30208 13.7703 2.52344 13.9917C2.74479 14.2075 3.06299 14.3154 3.47803 14.3154ZM4.65674 8.00684C4.65674 7.79655 4.72038 7.62777 4.84766 7.50049C4.98047 7.36768 5.15479 7.30127 5.37061 7.30127H7.81104V4.86084C7.81104 4.65055 7.87467 4.479 8.00195 4.34619C8.12923 4.21338 8.29248 4.14697 8.4917 4.14697C8.70199 4.14697 8.87077 4.21338 8.99805 4.34619C9.13086 4.47347 9.19727 4.64502 9.19727 4.86084V7.30127H11.646C11.8563 7.30127 12.0251 7.36768 12.1523 7.50049C12.2852 7.62777 12.3516 7.79655 12.3516 8.00684C12.3516 8.20605 12.2852 8.3693 12.1523 8.49658C12.0251 8.62386 11.8563 8.6875 11.646 8.6875H9.19727V11.1362C9.19727 11.3465 9.13086 11.5181 8.99805 11.6509C8.87077 11.7782 8.70199 11.8418 8.4917 11.8418C8.29248 11.8418 8.12923 11.7782 8.00195 11.6509C7.87467 11.5181 7.81104 11.3465 7.81104 11.1362V8.6875H5.37061C5.16032 8.6875 4.98877 8.62386 4.85596 8.49658C4.72314 8.3693 4.65674 8.20605 4.65674 8.00684Z" fill="#007AFF"/>
</svg>
