<?xml version="1.0" encoding="UTF-8"?>
<!--Generator: Apple Native CoreSVG 326-->
<!DOCTYPE svg
PUBLIC "-//W3C//DTD SVG 1.1//EN"
       "http://www.w3.org/Graphics/SVG/1.1/DTD/svg11.dtd">
<svg version="1.1" xmlns="http://www.w3.org/2000/svg" xmlns:xlink="http://www.w3.org/1999/xlink" viewBox="0 0 13.6914 17.8906">
 <g>
  <rect height="17.8906" opacity="0" width="13.6914" x="0" y="0"/>
  <path d="M0 8.94043C0 9.42383 0.170898 9.81934 0.576172 10.2148L7.95898 17.4414C8.25684 17.7441 8.61328 17.8857 9.03809 17.8857C9.90723 17.8857 10.6152 17.1875 10.6152 16.333C10.6152 15.8984 10.4297 15.5029 10.1074 15.1855L3.67188 8.93555L10.1074 2.69531C10.4346 2.37305 10.6152 1.97754 10.6152 1.55273C10.6152 0.693359 9.90723 0 9.03809 0C8.6084 0 8.25684 0.141602 7.95898 0.439453L0.576172 7.66602C0.175781 8.05664 0.00488281 8.45215 0 8.94043Z" fill="#007aff"/>
 </g>
</svg>
